# xmcd
#
# Track frame offsets: 
#        150
#        11461
#        24020
#        36008
#        47518
#        58814
#        71047
#        83012
#        94537
#        109661
#        121827
#        132512
#        142179
#        152181
#        163828
#        174546
#        189380
#        199562
#        211789
#        225153
#        238251
#        250461
#        262917
#        273118
#
# Disc length: 3798 seconds
#
# Revision: 0
# Processed by: cddbd v1.5.2PL0 Copyright (c) Steve Scherf et al.
# Submitted via: ExactAudioCopy v0.99pb4
#
DISCID=3d0ed418
DTITLE=Wanda Jackson - Love Me Forever and Blues in My Heart
DYEAR=2010
DGENRE=Country
TTITLE0=Please Love Me Forever 
TTITLE1=Funny How Time Slips Away 
TTITLE2=Since I Met You Baby 
TTITLE3=Pledging My Love 
TTITLE4=The Things I Might Have Been 
TTITLE5=May You Never Be Alone 
TTITLE6=How Important Can It Be 
TTITLE7=I May Never Get To Heaven 
TTITLE8=Little Things Mean A Lot 
TTITLE9=What Am I Living For 
TTITLE10=These Empty Arms 
TTITLE11=Have You Ever Been Lonely 
TTITLE12=Blues In My Heart 
TTITLE13=Lonely Street 
TTITLE14=Midnight 
TTITLE15=Weary Blues From Waitin' 
TTITLE16=I'm Waiting Just For You 
TTITLE17=Oh, Lonesome Me 
TTITLE18=Blues Stay Away From Me 
TTITLE19=Worried Mind 
TTITLE20=Just For You 
TTITLE21=I'm So Lonesome I Could Cry 
TTITLE22=Nightlife 
TTITLE23=Singin' The Blues 
EXTD=
EXTT0=
EXTT1=
EXTT2=
EXTT3=
EXTT4=
EXTT5=
EXTT6=
EXTT7=
EXTT8=
EXTT9=
EXTT10=
EXTT11=
EXTT12=
EXTT13=
EXTT14=
EXTT15=
EXTT16=
EXTT17=
EXTT18=
EXTT19=
EXTT20=
EXTT21=
EXTT22=
EXTT23=
PLAYORDER=
